<?xml version="1.0" encoding="UTF-8" standalone="no"?>
<svg
   width="512"
   height="512"
   viewBox="0 0 1708.9887 1708.2469"
   fill="none"
   version="1.1"
   id="svg1062"
   sodipodi:docname="babashka.svg"
   inkscape:version="1.2-dev (9ee32be, 2021-06-19)"
   xmlns:inkscape="http://www.inkscape.org/namespaces/inkscape"
   xmlns:sodipodi="http://sodipodi.sourceforge.net/DTD/sodipodi-0.dtd"
   xmlns="http://www.w3.org/2000/svg"
   xmlns:svg="http://www.w3.org/2000/svg">
  <sodipodi:namedview
     id="namedview1064"
     pagecolor="#ffffff"
     bordercolor="#666666"
     borderopacity="1.0"
     inkscape:pageshadow="2"
     inkscape:pageopacity="0.0"
     inkscape:pagecheckerboard="0"
     showgrid="false"
     inkscape:zoom="1.6791383"
     inkscape:cx="371.91695"
     inkscape:cy="309.38488"
     inkscape:window-width="2270"
     inkscape:window-height="1357"
     inkscape:window-x="1154"
     inkscape:window-y="25"
     inkscape:window-maximized="0"
     inkscape:current-layer="svg1062" />
  <path
     id="path1011"
     fill="#000000"
     style="stroke-width:0.4109;fill-opacity:1;stroke:none"
     d="M 256 0 C 142.79748 61.223868 71.095703 191.05601 71.095703 293.17578 C 71.095703 355.51318 101.94159 410.64439 149.20312 444.13672 C 147.51433 444.36273 145.85938 444.65051 144.23633 445.00391 C 108.32791 452.83972 64.521484 512 64.521484 512 L 172.99805 512 C 192.29794 512 210.64897 504.75083 225.16602 496.61914 C 232.21703 505.94653 243.40185 511.97852 256 511.97852 C 268.59814 511.97852 279.78708 505.94653 286.83398 496.61914 C 301.35103 504.75083 319.70206 512 339.00195 512 L 447.47852 512 C 447.47852 512 403.67207 452.83972 367.76367 445.00391 C 366.14063 444.65051 364.48568 444.36273 362.79688 444.13672 C 410.05841 410.64439 440.9043 355.51318 440.9043 293.17578 C 440.9043 191.05601 370.22976 58.142129 256 0 z M 255.79492 167.64648 C 291.91733 167.64649 326.56895 182.00036 352.11133 207.54297 C 364.15742 219.58917 373.61081 233.70694 380.34766 249.00391 L 397.34961 249.00391 C 406.42636 249.00391 413.78516 256.3623 413.78516 265.43945 L 413.78516 341.90625 C 413.78516 350.98339 406.42636 358.34375 397.34961 358.34375 L 380.52148 358.34375 C 373.77611 373.78552 364.25555 388.03145 352.11133 400.17578 C 326.56895 425.7184 291.91733 440.07227 255.79492 440.07227 C 219.67251 440.07227 185.02089 425.7184 159.47852 400.17578 C 147.37838 388.07553 137.88812 373.88651 131.14648 358.50977 L 114.28906 358.50977 C 105.21232 358.50977 97.853516 351.14944 97.853516 342.07227 L 97.853516 265.43945 C 97.853516 256.3623 105.21232 249.00391 114.28906 249.00391 L 131.24219 249.00391 C 137.97903 233.70694 147.43242 219.58917 159.47852 207.54297 C 185.02089 182.00036 219.67252 167.64648 255.79492 167.64648 z M 290.60938 198.01758 C 267.35638 228.29674 236.60614 244.86736 192.22656 249.00391 L 230.52344 249.00391 L 231.35352 249.00391 L 281.06445 249.00391 L 362.19141 249.00391 C 360.19775 245.13661 357.92484 241.41465 355.52344 237.76953 C 328.66701 234.70763 304.52582 226.22529 290.60938 198.01758 z M 255.97461 289.07617 C 251.11769 289.15607 246.24054 291.16823 244.00391 295.03711 L 237.47266 344.23633 C 236.38789 352.40579 229.4182 358.50977 221.17969 358.50977 L 149.30078 358.50977 C 154.93473 369.48954 162.21177 379.6648 171.10156 388.55469 C 193.56608 411.01941 224.02532 423.63672 255.79492 423.63672 C 287.56453 423.63672 318.02374 411.01941 340.48828 388.55469 C 349.42219 379.62068 356.72238 369.38636 362.36719 358.34375 L 290.67188 358.34375 C 282.43328 358.34375 275.46368 352.23981 274.37891 344.07031 L 267.82227 294.70898 C 265.6682 290.84863 260.83152 288.99627 255.97461 289.07617 z M 119.45898 296.25781 L 119.45898 303.3457 L 121.43164 303.3457 C 123.09578 303.3457 124.38865 303.96129 124.94336 305.93359 L 126.23828 310.49609 L 114.65039 340.44922 L 123.0957 340.44922 L 130.06055 320.72656 L 133.75781 332.62305 C 135.17541 337.24564 137.58005 340.44922 143.00391 340.44922 L 146.33203 340.44922 L 146.33203 333.66992 L 144.05078 333.66992 C 142.57155 333.66992 141.58488 332.62289 141.0918 331.08203 L 131.72461 302.85352 C 131.10826 301.06612 130.36702 299.7713 129.38086 298.78516 C 127.53181 296.87448 125.12794 296.25781 122.41602 296.25781 L 119.45898 296.25781 z M 297.45898 296.44336 L 297.45898 303.53125 L 299.43164 303.53125 C 301.09577 303.53125 302.39059 304.14683 302.94531 306.11914 L 304.24023 310.67969 L 292.65234 340.63477 L 301.0957 340.63477 L 308.06055 320.91211 L 311.75977 332.80664 C 313.17738 337.42923 315.58006 340.63477 321.00391 340.63477 L 324.33203 340.63477 L 324.33203 333.85547 L 322.05273 333.85547 C 320.5735 333.85547 319.58685 332.80654 319.09375 331.26562 L 309.72461 303.03711 C 309.10826 301.24968 308.36895 299.95489 307.38281 298.96875 C 305.53376 297.05807 303.12991 296.44336 300.41797 296.44336 L 297.45898 296.44336 z M 159.76758 333.66992 L 159.76758 340.44922 L 182.77734 340.44922 L 182.77734 333.66992 L 159.76758 333.66992 z M 337.76953 333.85547 L 337.76953 340.63477 L 360.7793 340.63477 L 360.7793 333.85547 L 337.76953 333.85547 z "
     transform="matrix(3.3378686,0,0,3.3378686,0,-0.3709)" />
  <defs
     id="defs1060">
    <linearGradient
       id="paint0_linear"
       x1="1499"
       y1="139"
       x2="1499"
       y2="1385.52"
       gradientUnits="userSpaceOnUse"
       gradientTransform="matrix(1.371525,0,0,1.371525,-1179.4772,-191.0129)">
      <stop
         stop-color="#E41F26"
         id="stop1055" />
      <stop
         offset="1"
         stop-color="#B70000"
         id="stop1057" />
    </linearGradient>
  </defs>
</svg>
