<?xml version="1.0" encoding="UTF-8" standalone="no"?>
<!-- Created with Inkscape (http://www.inkscape.org/) -->

<svg
   width="512"
   height="512"
   viewBox="0 0 135.46666 135.46667"
   version="1.1"
   id="svg5"
   inkscape:version="1.2-dev (9ee32be, 2021-06-19)"
   sodipodi:docname="cljs.svg"
   xmlns:inkscape="http://www.inkscape.org/namespaces/inkscape"
   xmlns:sodipodi="http://sodipodi.sourceforge.net/DTD/sodipodi-0.dtd"
   xmlns="http://www.w3.org/2000/svg"
   xmlns:svg="http://www.w3.org/2000/svg">
  <sodipodi:namedview
     id="namedview7"
     pagecolor="#ffffff"
     bordercolor="#666666"
     borderopacity="1.0"
     inkscape:pageshadow="2"
     inkscape:pageopacity="0.0"
     inkscape:pagecheckerboard="0"
     inkscape:document-units="mm"
     showgrid="false"
     units="px"
     inkscape:zoom="2.2910156"
     inkscape:cx="256"
     inkscape:cy="256"
     inkscape:window-width="2270"
     inkscape:window-height="1357"
     inkscape:window-x="1154"
     inkscape:window-y="25"
     inkscape:window-maximized="0"
     inkscape:current-layer="layer1"
     showguides="false"
     width="512px">
    <sodipodi:guide
       position="-0.77412615,5.3692599"
       orientation="1,0"
       id="guide549" />
  </sodipodi:namedview>
  <defs
     id="defs2" />
  <g
     inkscape:label="Layer 1"
     inkscape:groupmode="layer"
     id="layer1"
     style="display:inline">
    <g
       id="g168"
       transform="matrix(6.1574079,0,0,6.16826,1134.921,2134.8268)">
      <g
         id="g314"
         transform="matrix(0.05445545,0,0,0.05445545,-184.91698,-346.79764)">
        <g
           id="g150">
          <path
             fill="#96ca4b"
             d="m 122,266.6 c -12.7,0 -22.3,-3.7 -28.9,-11.1 -6.6,-7.4 -9.9,-18 -9.9,-31.8 0,-14.1 3.4,-24.9 10.3,-32.5 6.9,-7.6 16.8,-11.4 29.9,-11.4 8.8,0 16.8,1.6 23.8,4.9 l -5.4,14.3 c -7.5,-2.9 -13.7,-4.4 -18.6,-4.4 -14.5,0 -21.7,9.6 -21.7,28.8 0,9.4 1.8,16.4 5.4,21.2 3.6,4.7 8.9,7.1 15.9,7.1 7.9,0 15.4,-2 22.5,-5.9 v 15.5 c -3.2,1.9 -6.6,3.2 -10.2,4 -3.6,0.9 -8,1.3 -13.1,1.3 z"
             id="path142" />
          <path
             fill="#96ca4b"
             d="M 194.4,265.1 H 176.6 V 147.3 h 17.8 z"
             id="path144" />
          <path
             fill="#5f7fbf"
             d="m 222.9,302.3 c -5.3,0 -9.8,-0.6 -13.3,-1.9 v -14.1 c 3.4,0.9 6.9,1.4 10.5,1.4 7.6,0 11.4,-4.3 11.4,-12.9 v -93.5 h 17.8 V 276 c 0,8.6 -2.3,15.2 -6.8,19.6 -4.6,4.5 -11.1,6.7 -19.6,6.7 z m 7.5,-143.1 c 0,-3.2 0.9,-5.6 2.6,-7.3 1.7,-1.7 4.2,-2.6 7.5,-2.6 3.1,0 5.6,0.9 7.3,2.6 1.7,1.7 2.6,4.2 2.6,7.3 0,3 -0.9,5.4 -2.6,7.2 -1.7,1.7 -4.2,2.6 -7.3,2.6 -3.2,0 -5.7,-0.9 -7.5,-2.6 -1.8,-1.8 -2.6,-4.2 -2.6,-7.2 z"
             id="path146" />
          <path
             fill="#5f7fbf"
             d="m 342.5,241.3 c 0,8.2 -3,14.4 -8.9,18.8 -6,4.4 -14.5,6.5 -25.6,6.5 -11.2,0 -20.1,-1.7 -26.9,-5.1 v -15.4 c 9.8,4.5 19,6.8 27.5,6.8 10.9,0 16.4,-3.3 16.4,-9.9 0,-2.1 -0.6,-3.9 -1.8,-5.3 -1.2,-1.4 -3.2,-2.9 -6,-4.4 -2.8,-1.5 -6.6,-3.2 -11.6,-5.1 -9.6,-3.7 -16.2,-7.5 -19.6,-11.2 -3.4,-3.7 -5.1,-8.6 -5.1,-14.5 0,-7.2 2.9,-12.7 8.7,-16.7 5.8,-4 13.6,-5.9 23.6,-5.9 9.8,0 19.1,2 27.9,6 l -5.8,13.4 c -9,-3.7 -16.6,-5.6 -22.8,-5.6 -9.4,0 -14.1,2.7 -14.1,8 0,2.6 1.2,4.8 3.7,6.7 2.4,1.8 7.8,4.3 16,7.5 6.9,2.7 11.9,5.1 15.1,7.3 3.1,2.2 5.4,4.8 7,7.7 1.5,2.8 2.3,6.3 2.3,10.4 z"
             id="path148" />
        </g>
        <path
           fill="#96ca4b"
           stroke="#96ca4b"
           stroke-width="6"
           stroke-miterlimit="10"
           d="M 197,392.7 C 105.8,384.6 34,307.7 34,214.4 34,121.1 105.8,44.3 197,36.2 V 16.1 C 94.7,24.3 14,110.1 14,214.5 14,318.9 94.7,404.7 197,412.9 Z"
           id="path152" />
        <path
           fill="#5f7fbf"
           stroke="#5f7fbf"
           stroke-width="6"
           stroke-miterlimit="10"
           d="m 229,16.1 v 20.1 c 91.2,8.1 163,85 163,178.3 0,93.3 -71.8,170.2 -163,178.3 v 20.1 C 331.3,404.7 412,318.9 412,214.5 412,110.1 331.3,24.3 229,16.1 Z"
           id="path154" />
      </g>
    </g>
  </g>
</svg>
