<?xml version="1.0" encoding="UTF-8" standalone="no"?>
<!-- Created with Inkscape (http://www.inkscape.org/) -->

<svg
   version="1.1"
   id="svg1"
   width="1694.8966"
   height="1694.8966"
   viewBox="0 0 1694.8966 1694.8966"
   sodipodi:docname="jank.svg"
   inkscape:version="1.3 (0e150ed6c4, 2023-07-21)"
   xmlns:inkscape="http://www.inkscape.org/namespaces/inkscape"
   xmlns:sodipodi="http://sodipodi.sourceforge.net/DTD/sodipodi-0.dtd"
   xmlns="http://www.w3.org/2000/svg"
   xmlns:svg="http://www.w3.org/2000/svg">
  <defs
     id="defs1" />
  <sodipodi:namedview
     id="namedview1"
     pagecolor="#ffffff"
     bordercolor="#000000"
     borderopacity="0.25"
     inkscape:showpageshadow="2"
     inkscape:pageopacity="0.0"
     inkscape:pagecheckerboard="0"
     inkscape:deskcolor="#d1d1d1"
     showguides="true"
     inkscape:zoom="0.79976778"
     inkscape:cx="813.98628"
     inkscape:cy="948.40029"
     inkscape:window-width="3840"
     inkscape:window-height="2131"
     inkscape:window-x="3191"
     inkscape:window-y="-9"
     inkscape:window-maximized="1"
     inkscape:current-layer="layer2">
    <sodipodi:guide
       position="0,1057.4316"
       orientation="1,0"
       id="guide37"
       inkscape:locked="false" />
    <sodipodi:guide
       position="1694.8966,992.88935"
       orientation="1,0"
       id="guide38"
       inkscape:locked="false" />
    <sodipodi:guide
       position="381.06439,1694.8966"
       orientation="0,-1"
       id="guide39"
       inkscape:locked="false" />
    <sodipodi:guide
       position="567.61795,0"
       orientation="0,-1"
       id="guide40"
       inkscape:locked="false" />
  </sodipodi:namedview>
  <g
     inkscape:groupmode="layer"
     id="layer2"
     inkscape:label="Icon">
    <path
       style="fill:#000000;stroke-width:120.035;stroke-linejoin:round"
       d="m 328.2705,1557.2146 c -51.15572,-9.0011 -84.23291,-25.9337 -119.46419,-61.1553 -29.30229,-29.2943 -49.01022,-63.3487 -61.1619,-105.6848 -9.26797,-32.2895 -9.77372,-43.5115 -11.25754,-249.7926 l -1.14045,-158.54528 -4.94113,-6.50267 c -2.71762,-3.57647 -21.13518,-25.07056 -40.927904,-47.76464 -50.792025,-58.23751 -50.211677,-57.4741 -51.280558,-67.45517 -1.176884,-10.98958 0.205987,-19.15691 4.13922,-24.44651 4.95459,-6.66317 27.164453,-32.79184 51.76833,-60.90257 12.163312,-13.89697 26.512712,-30.73413 31.887552,-37.41593 l 9.77245,-12.14872 1.01389,-179.52203 1.01389,-179.52204 3.61951,-18.18724 c 11.89293,-59.75951 32.17686,-97.51615 75.53903,-140.60885 27.8245,-27.6516 47.94558,-41.37759 77.97861,-53.19463 39.42379,-15.51202 72.18119,-17.79406 103.35201,-7.20001 11.19716,3.80559 30.63237,14.04613 39.73346,20.93583 11.95534,9.05044 26.17134,25.06331 37.8061,42.58472 5.70817,8.59624 38.20197,60.6426 72.20844,115.65857 34.00649,55.01597 89.86264,145.32343 124.12478,200.68325 34.26215,55.35982 148.4843,239.91339 253.82702,410.11905 105.34268,170.20567 210.84288,340.69267 234.44478,378.85997 57.872,93.5867 74.6259,120.084 78.2677,123.7859 l 3.0751,3.1259 9.036,-4.6719 c 11.4699,-5.9305 41.7882,-24.8886 54.9229,-34.3435 28.2653,-20.3467 65.5793,-54.5346 89.1095,-81.6446 23.8836,-27.5169 50.7235,-65.5095 66.7471,-94.4819 40.697,-73.5845 67.0437,-152.94 79.5145,-239.49434 7.1194,-49.41307 7.5833,-57.16471 7.4737,-124.90695 -0.1132,-69.90465 -1.5231,-99.88079 -6.2337,-132.53847 -19.2866,-133.70703 -64.2794,-239.84329 -140.7279,-331.97136 -13.9853,-16.85372 -52.3528,-55.12214 -69.0446,-68.86637 -38.8154,-31.96081 -75.6724,-54.99596 -120.1668,-75.10247 -26.3492,-11.90695 -34.2751,-16.50698 -40.0339,-23.23478 -12.1869,-14.23769 -17.3936,-36.32835 -12.5323,-53.17083 5.1647,-17.89332 16.1968,-30.8757 33.1131,-38.96675 9.0042,-4.30675 9.9254,-4.48538 23.1317,-4.48538 16.5285,0 23.995,2.2021 55.5034,16.36964 46.6668,20.98345 94.7107,51.08267 138.3028,86.64612 20.0426,16.35119 69.6206,65.54999 86.4502,85.78904 32.967,39.64544 58.5357,78.01761 82.2332,123.41161 35.05,67.1401 63.0017,152.98801 76.9818,236.43358 9.0556,54.05238 10.3137,77.71866 9.7185,182.81233 -0.5288,93.341 -0.1242,86.72081 -8.4052,137.54948 -13.7515,84.4061 -34.2171,152.6475 -67.1089,223.7715 -51.9522,112.3394 -133.5943,210.8947 -220.7953,266.5363 -17.4619,11.1421 -54.8842,29.3504 -71.415,34.7478 -22.3511,7.2979 -31.7989,8.5699 -58.959,7.9384 -27.4927,-0.6391 -32.9403,-1.9972 -57.4238,-14.3155 -17.4076,-8.7582 -22.8445,-12.473 -34.34,-23.4632 -15.5147,-14.8328 -26.395,-28.9819 -53.6335,-69.7469 -58.787,-87.98 -92.9561,-141.2254 -177.55646,-276.6848 -36.07791,-57.7667 -67.24097,-107.4218 -69.25123,-110.3445 -2.01025,-2.9227 -4.64109,-5.314 -5.84631,-5.314 -1.2052,0 -5.30222,3.7979 -9.1045,8.4399 -8.08919,9.8756 -211.1475,275.9674 -301.75604,395.4273 -49.03764,64.6521 -59.81613,77.1655 -80.63978,93.6198 -13.97854,11.0455 -36.51886,19.9974 -58.81444,23.3585 -16.79485,2.5318 -44.96123,2.1643 -61.84794,-0.807 z m 46.4119,-110.2321 c 6.51584,-6.7951 15.69119,-18.628 81.6838,-105.3431 29.83147,-39.1988 98.69542,-129.5063 153.031,-200.6832 151.78873,-198.83569 153.85458,-201.55084 158.09586,-207.78555 2.18948,-3.21855 3.98088,-7.18672 3.98088,-8.81815 0,-3.83878 15.67031,21.87773 -312.58541,-512.98309 -32.07628,-52.26517 -66.72146,-108.69268 -76.9893,-125.39445 l -18.66879,-30.36687 -4.94018,0.72571 c -6.57029,0.96517 -21.9222,7.70769 -34.57303,15.18439 -11.36808,6.71857 -32.42106,26.60357 -42.80376,40.42907 -11.19935,14.91293 -20.64566,38.0914 -23.19425,56.91191 -1.30345,9.62556 -2.06984,54.97244 -3.97278,235.06613 -1.47576,139.66642 -2.17919,157.8743 -6.69859,173.38773 -6.35952,21.82986 -17.89908,44.7854 -32.18101,64.01733 -4.01862,5.41146 -7.30659,10.88114 -7.30659,12.15485 0,1.2737 4.75539,9.32535 10.56754,17.89255 15.7981,23.28666 25.3971,43.94583 30.70625,66.0867 2.31441,9.65185 2.55333,17.58093 3.73923,124.09364 1.78688,160.4911 3.59024,259.3032 4.99258,273.5617 1.91377,19.4584 9.58711,39.7381 22.33382,59.0254 7.19479,10.8866 27.66498,31.2844 38.73578,38.5988 16.55522,10.9379 36.19544,19.3938 45.27242,19.4914 5.08343,0.055 6.2132,-0.496 10.77453,-5.2529 z"
       id="path45" />
  </g>
</svg>
