<?xml version="1.0" encoding="UTF-8" standalone="no"?>
<svg
   sodipodi:docname="joyride.svg"
   inkscape:version="1.3 (0e150ed6c4, 2023-07-21)"
   id="svg8"
   version="1.1"
   viewBox="0 0 135.46666 135.46667"
   height="512"
   width="512"
   inkscape:export-filename="/home/chris/icon.png"
   inkscape:export-xdpi="96"
   inkscape:export-ydpi="96"
   xml:space="preserve"
   xmlns:inkscape="http://www.inkscape.org/namespaces/inkscape"
   xmlns:sodipodi="http://sodipodi.sourceforge.net/DTD/sodipodi-0.dtd"
   xmlns="http://www.w3.org/2000/svg"
   xmlns:svg="http://www.w3.org/2000/svg"
   xmlns:rdf="http://www.w3.org/1999/02/22-rdf-syntax-ns#"
   xmlns:cc="http://creativecommons.org/ns#"
   xmlns:dc="http://purl.org/dc/elements/1.1/"><defs
     id="defs2"><clipPath
       clipPathUnits="userSpaceOnUse"
       id="clipPath843"><rect
         style="fill:#88c0d0;fill-opacity:1"
         id="rect847"
         width="102.85884"
         height="375.90518"
         x="44.359974"
         y="-187.95259"
         ry="0"
         transform="rotate(45)" /></clipPath></defs><sodipodi:namedview
     units="px"
     inkscape:window-maximized="0"
     inkscape:window-y="596"
     inkscape:window-x="174"
     inkscape:window-height="1123"
     inkscape:window-width="2270"
     showgrid="false"
     inkscape:current-layer="layer2"
     inkscape:document-units="px"
     inkscape:cy="277.7319"
     inkscape:cx="349.70229"
     inkscape:zoom="1.6256685"
     inkscape:pageshadow="2"
     inkscape:pageopacity="0.0"
     borderopacity="1.0"
     bordercolor="#666666"
     pagecolor="#ffffff"
     id="base"
     inkscape:document-rotation="0"
     inkscape:pagecheckerboard="0"
     inkscape:showpageshadow="2"
     inkscape:deskcolor="#d1d1d1" /><metadata
     id="metadata5"><rdf:RDF><cc:Work
         rdf:about=""><dc:format>image/svg+xml</dc:format><dc:type
           rdf:resource="http://purl.org/dc/dcmitype/StillImage" /></cc:Work></rdf:RDF></metadata><g
     id="layer1"
     inkscape:groupmode="layer"
     inkscape:label="Layer 1"
     style="display:none"
     sodipodi:insensitive="true"><path
       id="path1"
       fill="#000000"
       style="display:inline;fill-opacity:1;stroke-linejoin:round;stroke-dasharray:none;stroke-opacity:1"
       d="m 304.5332,0.83789063 c -2.02902,0.0123922 -4.02746,0.12639086 -5.97851,0.34570317 -5.90028,0.663234 -8.71425,1.2055289 -15.90235,3.0664062 -3.57556,0.9256508 -13.5888,5.933611 -18.45312,9.228516 -9.53037,6.455502 -18.60747,16.927025 -24.01758,27.707031 -1.19657,2.384246 -2.38955,4.333984 -2.65039,4.333984 -0.45287,0 -5.33797,-1.242785 -13.31641,-3.388672 -5.52362,-1.485636 -26.61601,-7.136353 -38.75195,-10.380859 -3.0449,-0.814044 -8.30428,-2.232132 -11.6875,-3.152344 -3.38323,-0.920213 -6.98309,-1.893269 -7.99805,-2.162109 -5.82815,-1.543737 -19.26382,-5.169895 -24.29687,-6.556641 -11.83438,-3.260695 -20.00271,-1.866623 -26.1543,4.462891 -4.02265,4.139006 -4.49824,5.164923 -7.39648,15.949219 -0.81832,3.044898 -2.6048,9.688842 -3.96875,14.763672 -1.36396,5.07483 -3.28472,12.270645 -4.269534,15.992187 -0.984818,3.721542 -2.398285,8.980924 -3.140625,11.6875 -0.742334,2.706576 -1.569768,5.752612 -1.83789,6.767578 -0.26813,1.014966 -1.49182,5.58109 -2.720703,10.148438 -1.228878,4.567349 -3.017337,11.350719 -3.97461,15.072269 -0.957279,3.72153 -2.334766,8.84149 -3.060547,11.3789 -0.725775,2.53742 -1.60298,5.65122 -1.949218,6.91992 l -0.628907,2.30665 h -9.320312 c -5.125462,0 -10.996579,0.31678 -13.046875,0.70312 -5.586578,1.05267 -16.160877,4.66254 -20.335938,6.94141 -4.925235,2.68833 -8.543315,4.82923 -8.919922,5.27929 -0.16916,0.20215 -1.414289,1.18262 -2.767578,2.17969 -3.750521,2.76334 -11.0415,10.38315 -13.996093,14.62695 -7.2507471,10.41454 -10.9500941,19.73055 -13.10742237,33.01368 -2.72223233,16.76137 2.78929017,37.57502 13.85156237,52.30859 2.643797,3.52121 10.576552,11.59 13.890625,14.12891 3.310902,2.53669 8.748172,5.82206 12.306641,7.43554 2.333968,1.05827 3.970703,2.18319 3.970703,2.72852 0,0.51033 -0.586422,3.06781 -1.302734,5.68359 -0.716314,2.61578 -1.520935,5.5866 -1.789063,6.60156 -0.268128,1.01496 -1.490998,5.58305 -2.716797,10.1504 -1.225799,4.56734 -3.184097,11.90259 -4.351562,16.30078 -2.852432,10.74595 -5.536914,20.73348 -6.779297,25.2207 -0.562031,2.02993 -1.546482,5.69755 -2.189453,8.15039 l -2.339844,8.91797 c -0.642972,2.45284 -1.629944,6.12046 -2.193359,8.15039 -2.824217,10.17538 -4.017719,15.46243 -4.011719,17.76367 0.01549,5.89673 3.935583,13.52498 8.765625,17.05469 3.079577,2.25051 4.277683,2.77472 9.990234,4.37695 4.729703,1.32657 4.455169,1.25313 16.300781,4.40821 4.567348,1.21651 10.932426,2.92243 14.146485,3.79296 3.21406,0.87052 9.44361,2.54409 13.841797,3.7168 4.398185,1.1727 10.902697,2.91917 14.455078,3.88281 3.552381,0.96365 9.642501,2.59629 13.533201,3.62696 3.8907,1.03066 9.28757,2.47909 11.99414,3.21875 2.70658,0.73964 6.97045,1.85519 9.47461,2.47851 2.50416,0.62332 4.75411,1.35297 5,1.62305 0.24562,0.27008 0.24319,3.12188 -0.006,6.33594 -1.15534,14.91 3.70109,31.73377 12.96289,44.90429 6.58777,9.36795 16.66821,17.97279 27.00782,23.05664 8.11396,3.98954 15.2175,6.06655 24.91211,7.28321 8.91988,1.11943 21.58466,-0.44576 31.37304,-3.87696 4.26447,-1.49485 14.10164,-6.75963 18.07422,-9.67382 9.41232,-6.90469 18.18572,-17.45395 22.55078,-27.11524 1.9506,-4.31732 1.80026,-4.27682 8.27735,-2.25781 1.52244,0.47458 7.05875,1.98829 12.30273,3.36328 14.86325,3.89717 20.21601,5.31982 25.52734,6.78125 2.70658,0.74472 5.75261,1.57164 6.76758,1.83984 5.73232,1.51475 19.66387,5.23006 27.67969,7.38086 24.44991,6.56043 26.17737,6.92701 30.82422,6.53516 5.05318,-0.42611 9.57626,-2.47666 12.98828,-5.88867 2.49863,-2.49863 4.68649,-5.8035 5.32422,-8.04297 0.85429,-2.99998 4.53507,-16.40452 5.32031,-19.37695 0.26813,-1.01497 1.48854,-5.58305 2.71289,-10.15039 1.22434,-4.56735 3.36418,-12.5939 4.75391,-17.8379 1.38973,-5.24398 3.20357,-12.02541 4.03125,-15.07031 2.36953,-8.71706 2.40374,-8.84355 4.36719,-16.30078 1.63044,-6.19255 2.90529,-10.91384 5.15429,-19.07031 0.32649,-1.18413 0.73367,-2.86393 0.9043,-3.73242 l 0.31055,-1.57813 9.63476,-0.0176 c 13.1201,-0.0229 20.59175,-1.66328 31.7168,-6.96289 12.44115,-5.92655 24.72459,-17.21507 31.12109,-28.60351 0.61633,-1.09732 1.41257,-2.51783 1.76953,-3.15625 1.48819,-2.6616 3.68543,-8.20517 4.84766,-12.23242 2.58074,-8.94247 2.92522,-11.53979 2.85352,-21.53125 -0.0594,-8.28421 -0.3162,-10.82349 -1.61329,-16.04493 -2.1192,-8.53094 -7.28526,-19.97905 -11.36132,-25.17382 -8.72347,-11.11768 -15.79981,-17.19624 -25.86329,-22.2168 -3.12948,-1.56127 -5.68187,-3.01351 -5.67187,-3.22656 0.01,-0.21305 0.56393,-2.32315 1.23047,-4.69141 0.66653,-2.36826 2.36148,-8.5978 3.76562,-13.8418 1.40413,-5.24399 3.22245,-12.02541 4.04297,-15.07031 0.82051,-3.04491 1.99755,-7.47354 2.61524,-9.8418 0.61768,-2.36825 1.58257,-5.96616 2.14453,-7.99609 1.0037,-3.62562 2.19363,-8.04775 7.10937,-26.45117 1.35554,-5.07483 3.34124,-12.41009 4.41407,-16.30078 3.71563,-13.47506 2.88695,-20.60347 -3.16797,-27.22852 -3.73353,-4.08507 -6.89876,-5.65885 -16.58789,-8.25195 -4.25514,-1.1388 -10.91985,-2.91952 -14.81055,-3.95703 -10.61008,-2.82932 -10.49247,-2.7984 -14.45508,-3.92383 -2.02993,-0.57652 -4.65962,-1.275808 -5.84375,-1.554689 -2.5719,-0.605732 -9.94957,-2.546512 -15.07226,-3.964844 -4.47894,-1.240085 -14.11042,-3.825089 -23.77735,-6.380859 -3.9434,-1.042573 -9.61914,-2.567171 -12.61133,-3.388672 -2.99219,-0.821508 -6.16676,-1.659428 -7.05664,-1.863282 l -1.61914,-0.371093 0.32422,-6.833985 C 378.08484,51.892713 366.51376,28.465229 346.19531,13.990234 334.45681,5.6276506 318.73636,0.75114522 304.5332,0.83789063 Z m 1.97852,18.20898437 c 5.41516,0.200831 11.00458,1.199906 16.83789,2.996094 4.15942,1.280763 12.31396,6.130221 16.76562,9.970703 8.34079,7.195649 14.28959,16.582056 17.00782,26.835937 2.66403,10.04945 2.47788,18.735915 -0.66602,31.134766 -0.78902,3.111744 -1.37764,5.716129 -1.30664,5.787109 0.071,0.07098 3.44182,1.011437 7.49024,2.091797 4.04841,1.080361 11.37557,3.035559 16.28125,4.343749 4.90566,1.3082 12.51783,3.34071 16.91601,4.51758 4.39819,1.17688 10.48635,2.80705 13.53125,3.62109 3.0449,0.81404 8.30427,2.23213 11.6875,3.15235 3.38322,0.92021 6.98308,1.89319 7.99805,2.16211 8.82056,2.33699 19.99626,5.31874 27.67969,7.38476 5.07482,1.36459 10.88804,2.91211 12.91796,3.43946 2.02994,0.52735 4.3408,1.37283 5.13477,1.8789 2.16448,1.37962 2.5648,-0.46284 -10.01172,46.02735 -0.91522,3.38321 -2.33139,8.6426 -3.14844,11.6875 -4.76444,17.75576 -7.25738,27.07563 -8.55468,31.98632 -0.8044,3.0449 -2.06524,7.75046 -2.80274,10.45703 -0.73752,2.70658 -1.7085,6.30449 -2.1582,7.9961 -0.44969,1.69161 -1.39374,5.21625 -2.0957,7.83203 -0.70198,2.61578 -1.2754,5.14895 -1.2754,5.62891 0,0.54211 1.19996,1.16069 3.16797,1.63281 6.19684,1.4866 14.76452,4.81382 19.0293,7.39062 8.04305,4.85969 16.3773,13.76452 20.41992,21.81836 3.42063,6.81467 5.97456,17.36319 5.97656,24.67774 0.003,12.60417 -5.70547,27.01672 -14.39453,36.33789 -10.81128,11.59776 -24.01542,17.40139 -39.58984,17.40039 -7.0395,-4.9e-4 -12.40141,-0.78295 -19.13672,-2.79492 -1.81826,-0.54315 -3.53369,-0.75981 -3.81055,-0.48047 -0.27685,0.27934 -0.77133,1.61546 -1.09961,2.96875 -0.32827,1.35329 -1.06415,4.12045 -1.63476,6.15039 -0.57061,2.02993 -1.54296,5.62979 -2.16016,7.99805 -0.61719,2.36824 -1.82831,6.93437 -2.69336,10.14843 -4.27379,15.87909 -6.69404,24.90262 -8.33007,31.06446 -2.64588,9.96518 -4.34698,16.29732 -8.42774,31.37109 -0.82431,3.0449 -2.1844,8.1668 -3.02344,11.38086 -4.9575,18.99045 -5.39222,19.97736 -8.5625,19.51367 -2.04684,-0.29938 -7.10864,-1.63095 -40.61132,-10.68164 -3.0449,-0.82258 -9.13307,-2.45303 -13.53125,-3.625 -4.39819,-1.17198 -12.14978,-3.24226 -17.22461,-4.59961 -5.07483,-1.35735 -12.2726,-3.273 -15.99414,-4.25781 -3.72154,-0.98482 -8.98093,-2.39829 -11.6875,-3.14063 -5.95398,-1.633 -7.02961,-1.92192 -14.35352,-3.83593 -3.86369,-1.00974 -5.80497,-1.27653 -5.92969,-0.81836 -2.06895,7.60004 -3.71488,12.87955 -4.66992,14.97461 -0.65377,1.43417 -1.18945,2.77686 -1.18945,2.98242 0,0.20555 -1.50797,2.68729 -3.35157,5.51562 -7.60165,11.66196 -19.71686,20.1203 -33.24804,23.21289 -5.39703,1.23351 -8.90953,1.45213 -16.30078,1.01172 -5.62644,-0.33525 -8.18154,-0.84371 -14.14844,-2.8125 -7.12027,-2.34936 -18.12633,-9.86108 -22.29297,-15.21679 -1.08519,-1.3949 -2.14261,-2.67459 -2.34961,-2.84375 -0.80623,-0.65883 -4.74142,-7.24917 -6.28906,-10.53125 -3.35499,-7.11493 -4.35933,-12.30441 -4.33203,-22.37891 0.0223,-8.23332 0.22025,-9.96523 1.84961,-16.08399 l 1.82617,-6.85742 -1.89063,-0.35351 c -1.04031,-0.19403 -3.96844,-0.92631 -6.50586,-1.62891 -9.08906,-2.51673 -11.4904,-3.16924 -19.37695,-5.25586 -8.56031,-2.26489 -29.134147,-7.76844 -41.21289,-11.02539 -10.289228,-2.77442 -26.728012,-7.16319 -34.525391,-9.2168 -6.392854,-1.68369 -11.961275,-3.22528 -14.748046,-4.08203 -1.0497,-0.32271 -2.205194,-1.23808 -2.56836,-2.03515 -0.683486,-1.50009 -0.440455,-2.67048 3.867188,-18.50782 0.920213,-3.38321 1.893269,-6.98112 2.162109,-7.99609 0.268841,-1.01496 1.491153,-5.58305 2.716797,-10.15039 1.225644,-4.56735 2.891466,-10.79495 3.701172,-13.83984 1.542803,-5.80171 2.227307,-8.35227 4.953125,-18.45313 0.912995,-3.38323 2.326581,-8.6426 3.140625,-11.6875 0.814044,-3.04491 2.442262,-9.13502 3.61914,-13.5332 5.480623,-20.48196 6.971083,-26.4296 6.71875,-26.83789 -0.14979,-0.24236 -1.169954,-0.62506 -2.265625,-0.84961 -1.095665,-0.22454 -3.653661,-0.90741 -5.683593,-1.51758 -19.712828,-5.92541 -32.724429,-18.94596 -38.742188,-38.76758 -1.332504,-4.38906 -1.89298,-16.31422 -1.027344,-21.83789 3.61423,-23.06258 20.67375,-40.53215 44.150391,-45.21094 6.610056,-1.31736 18.446607,-0.41277 27.552734,2.10547 2.000073,0.5531 3.904459,0.91596 4.232422,0.80664 0.327964,-0.10932 1.356813,-3.09327 2.285157,-6.63086 2.695067,-10.26995 5.811497,-21.97014 8.921877,-33.49609 0.913,-3.38322 2.32658,-8.6426 3.14062,-11.6875 3.54685,-13.266798 5.92307,-22.14002 8.23828,-30.757813 6.13773,-22.846104 8.41584,-31.38755 8.94336,-33.523438 0.20889,-0.845804 0.66753,-2.138366 1.01953,-2.871093 1.22289,-2.545569 1.65789,-2.493551 19.55665,2.353515 2.53741,0.687144 5.99784,1.620282 7.68945,2.072266 1.69161,0.451983 6.39716,1.710211 10.45703,2.796875 4.05986,1.086663 11.39512,3.045322 16.30078,4.353516 14.35202,3.827249 24.5002,6.547317 30.75781,8.242187 18.91507,5.123125 37.79047,10.072576 37.85157,9.925781 0.0265,-0.0637 0.80584,-2.744925 1.73046,-5.958984 2.4957,-8.675155 3.94672,-12.069936 7.56055,-17.681641 5.51617,-8.565735 12.37301,-14.740032 21.21875,-19.105468 8.36521,-4.128286 16.90442,-6.014407 25.92969,-5.679688 z m 29.49414,78.925781 -5.45313,1.429688 c -3.00009,0.786726 -10.16063,2.684796 -15.9121,4.218746 -5.75148,1.53396 -15.71837,4.17762 -22.14649,5.87305 -6.42811,1.69543 -16.39306,4.33181 -22.14453,5.85938 -5.75147,1.52757 -13.86033,3.65398 -18.02148,4.72461 l -7.56641,1.94531 0.49219,7.42187 c 0.27045,4.08176 0.46378,20.0165 0.42968,35.41016 -0.0597,26.92995 -0.77822,42.01378 -2.67773,56.28516 -0.31521,2.36825 -0.88887,7.0738 -1.27539,10.45703 -0.58717,5.13949 -2.239,15.579 -4.93555,31.18359 -0.73943,4.27901 -4.05611,17.35941 -5.74023,22.64063 -3.77804,11.84755 -11.40903,23.99023 -15.07617,23.99023 -0.87563,0 -0.35449,-5.83737 1.23437,-13.8418 0.9049,-4.55869 11.2657,-38.11172 13.91211,-45.05273 0.27834,-0.73004 -2.11684,0.26723 -14.19922,5.91015 -2.99392,1.39827 -5.52613,2.54297 -5.62695,2.54297 -0.10083,0 -3.4358,1.53467 -7.41211,3.41016 -3.97632,1.87549 -8.50243,3.98182 -10.05859,4.68164 -5.49604,2.47159 -9.07329,4.10832 -17.59375,8.05469 -4.73651,2.19378 -9.85646,4.55573 -11.37891,5.24804 -1.52245,0.69231 -5.39727,2.47758 -8.61133,3.9668 -3.21406,1.48921 -6.72317,3.09457 -7.79687,3.56641 -1.07371,0.47184 -2.07581,1.42126 -2.22657,2.11133 -0.15075,0.69008 -1.0268,4.43741 -1.94726,8.32812 -2.58022,10.90638 -3.39635,18.72016 -3.40235,32.53125 -0.005,12.78965 0.35548,16.51689 2.53907,26.12695 4.49754,19.79391 13.93107,35.62541 26.18554,43.94727 9.95054,6.75727 20.58067,10.30514 33.39844,11.14844 19.70172,1.29621 33.95211,-2.31208 48.59375,-12.30469 15.06742,-10.28319 26.91924,-25.40986 39.25586,-50.10547 7.49423,-15.00207 15.09439,-34.70952 19.5625,-50.72851 1.48406,-5.32065 5.24409,-19.76791 5.76367,-22.14454 3.44421,-15.75424 6.24192,-30.18672 7.99024,-41.21289 3.43813,-21.68335 3.68206,-23.49503 6.11914,-45.51953 2.83953,-25.66148 4.48154,-49.9276 5.33398,-78.80859 z m -13.98438,17.576174 -0.13671,6.66015 c -0.57979,28.27573 -4.8106,73.90314 -9.54493,102.92969 -0.68976,4.22903 -1.47453,9.2115 -1.74414,11.07227 -0.26961,1.86077 -0.79704,5.04429 -1.17187,7.07422 -0.37482,2.02993 -0.9117,4.93653 -1.19141,6.45898 -1.49588,8.14219 -5.304,26.02134 -7.20703,33.83203 -3.05865,12.55381 -10.96333,36.06984 -15.63672,46.51953 -0.73759,1.64924 -1.76562,3.96628 -2.28515,5.15039 -7.83093,17.84847 -18.06548,34.24753 -27.2793,43.70899 -3.74168,3.84224 -12.33545,11.03906 -13.18164,11.03906 -0.21957,0 -1.22512,0.58855 -2.23633,1.30859 -2.49251,1.77482 -10.52231,5.10978 -15.33203,6.36915 -4.47414,1.1715 -18.99984,1.74569 -24.84961,0.98242 -21.35231,-2.78602 -34.2455,-14.02182 -41.70313,-36.3418 -3.57786,-10.70822 -4.4002,-16.66386 -4.4082,-31.98633 -0.007,-12.24236 0.48973,-18.13678 2.14649,-25.52929 0.30328,-1.35329 0.72648,-3.38175 0.9414,-4.50782 0.34791,-1.82289 0.8733,-2.27053 4.79102,-4.08203 2.42013,-1.11903 7.40698,-3.4495 11.08203,-5.17969 3.67506,-1.73018 6.76348,-3.14648 6.86328,-3.14648 0.0998,0 2.90642,-1.27543 6.23633,-2.83594 19.12448,-8.96238 21.79334,-10.12014 22.42383,-9.73047 0.31188,0.19274 0.41124,0.60188 0.2207,0.91016 -0.52449,0.84866 -3.34742,10.35862 -4.00781,13.50195 -2.01537,9.59283 -2.52327,14.05783 -2.32813,20.48438 0.32381,10.6646 2.65038,13.95594 9.86328,13.96094 4.50113,0.003 7.91728,-1.27701 13.0293,-4.88086 7.43976,-5.24485 14.71598,-17.65501 19.13867,-32.64063 1.72788,-5.85466 4.37849,-16.74314 5.16406,-21.2207 0.4155,-2.36826 0.99584,-5.55177 1.29102,-7.07422 2.10401,-10.85175 4.19528,-25.84966 5.53125,-39.67578 2.18717,-22.63548 2.48281,-29.50231 2.48242,-57.50781 -2.2e-4,-15.86955 0.24318,-29.00269 0.53906,-29.18555 0.29587,-0.18286 3.68412,-1.14555 7.5293,-2.13867 3.8452,-0.99312 9.20553,-2.40724 11.91211,-3.14258 2.70657,-0.73533 7.41214,-1.97894 10.45703,-2.76367 3.0449,-0.78473 7.75046,-2.03251 10.45703,-2.77344 7.48541,-2.04916 18.88153,-4.99361 20.60743,-5.32422 z"
       transform="scale(0.26458333)" /><path
       id="path6"
       fill="#000000"
       style="display:inline;fill-opacity:1;stroke-linejoin:round;stroke-dasharray:none;stroke-opacity:1"
       d="m 336.00586,97.972656 -5.45313,1.429688 c -3.00009,0.786726 -10.16063,2.684796 -15.9121,4.218746 -5.75148,1.53396 -15.71837,4.17762 -22.14649,5.87305 -6.42811,1.69543 -16.39306,4.33181 -22.14453,5.85938 -5.75147,1.52757 -13.86033,3.65398 -18.02148,4.72461 l -7.56641,1.94531 0.49219,7.42187 c 0.27045,4.08176 0.46378,20.0165 0.42968,35.41016 -0.0597,26.92995 -0.77822,42.01378 -2.67773,56.28516 -0.31521,2.36825 -0.88887,7.0738 -1.27539,10.45703 -0.58717,5.13949 -2.239,15.579 -4.93555,31.18359 -0.73943,4.27901 -4.05611,17.35941 -5.74023,22.64063 -3.77804,11.84755 -11.40903,23.99023 -15.07617,23.99023 -0.87563,0 -0.35449,-5.83737 1.23437,-13.8418 0.9049,-4.55869 11.2657,-38.11172 13.91211,-45.05273 0.27834,-0.73004 -2.11684,0.26723 -14.19922,5.91015 -2.99392,1.39827 -5.52613,2.54297 -5.62695,2.54297 -0.10083,0 -3.4358,1.53467 -7.41211,3.41016 -3.97632,1.87549 -8.50243,3.98182 -10.05859,4.68164 -5.49604,2.47159 -9.07329,4.10832 -17.59375,8.05469 -4.73651,2.19378 -9.85646,4.55573 -11.37891,5.24804 -1.52245,0.69231 -5.39727,2.47758 -8.61133,3.9668 -3.21406,1.48921 -6.72317,3.09457 -7.79687,3.56641 -1.07371,0.47184 -2.07581,1.42126 -2.22657,2.11133 -0.15075,0.69008 -1.0268,4.43741 -1.94726,8.32812 -2.58022,10.90638 -3.39635,18.72016 -3.40235,32.53125 -0.005,12.78965 0.35548,16.51689 2.53907,26.12695 4.49754,19.79391 13.93107,35.62541 26.18554,43.94727 9.95054,6.75727 20.58067,10.30514 33.39844,11.14844 19.70172,1.29621 33.95211,-2.31208 48.59375,-12.30469 15.06742,-10.28319 26.91924,-25.40986 39.25586,-50.10547 7.49423,-15.00207 15.09439,-34.70952 19.5625,-50.72851 1.48406,-5.32065 5.24409,-19.76791 5.76367,-22.14454 3.44421,-15.75424 6.24192,-30.18672 7.99024,-41.21289 3.43813,-21.68335 3.68206,-23.49503 6.11914,-45.51953 2.83953,-25.66148 4.48154,-49.9276 5.33398,-78.80859 z"
       sodipodi:nodetypes="ccssscccsssssssssssssssssscssssssssscc"
       transform="scale(0.26458333)" /></g><g
     inkscape:groupmode="layer"
     id="layer2"
     inkscape:label="Layer 2"><path
       id="path4"
       fill="#000000"
       style="display:inline;fill-opacity:1;stroke-linejoin:round;stroke-dasharray:none;stroke-opacity:1"
       d="M 304.5332 0.83789063 C 302.5042 0.85028279 300.50574 0.96428183 298.55469 1.1835938 C 292.65441 1.8468264 289.84044 2.3891265 282.65234 4.25 C 279.0768 5.175649 269.06352 10.183617 264.19922 13.478516 C 254.66887 19.934004 245.59175 30.405563 240.18164 41.185547 C 238.98507 43.569789 237.79209 45.519531 237.53125 45.519531 C 237.07838 45.519531 232.19328 44.276742 224.21484 42.130859 C 218.69124 40.645227 197.59881 34.9945 185.46289 31.75 C 182.41799 30.935958 177.15861 29.517866 173.77539 28.597656 C 170.39216 27.677445 166.7923 26.704387 165.77734 26.435547 C 159.94921 24.891812 146.5135 21.26565 141.48047 19.878906 C 133.21423 17.601332 126.7647 17.649617 121.51367 20.009766 L 118.69727 19.703125 L 117.7832 22.166016 C 116.92985 22.813167 116.11053 23.53475 115.32617 24.341797 C 111.30354 28.480795 110.82791 29.50674 107.92969 40.291016 C 107.11137 43.335908 105.32489 49.979868 103.96094 55.054688 C 102.59698 60.129506 100.67622 67.325341 99.691406 71.046875 C 98.70659 74.768409 97.293121 80.027805 96.550781 82.734375 C 95.808449 85.440945 94.981011 88.486989 94.712891 89.501953 C 94.444761 90.516917 93.221067 95.083051 91.992188 99.650391 C 90.763312 104.21774 88.974849 111.00111 88.017578 114.72266 C 87.060301 118.44417 85.682812 123.56417 84.957031 126.10156 C 84.231258 128.63898 83.354049 131.7528 83.007813 133.02148 L 82.378906 135.32813 L 73.058594 135.32813 C 67.933142 135.32813 62.062011 135.64491 60.011719 136.03125 C 54.425151 137.08392 43.850834 140.69379 39.675781 142.97266 C 34.750556 145.66097 31.132466 147.80189 30.755859 148.25195 C 30.586701 148.4541 29.341568 149.43457 27.988281 150.43164 C 24.237768 153.19498 16.946775 160.81481 13.992188 165.05859 C 10.305289 170.35424 7.5520934 175.37792 5.4375 180.77148 C 4.1921858 183.6235 3.0798712 186.56216 2.2578125 189.67383 C 1.875966 191.1192 1.5934567 193.2474 1.3886719 195.6582 C 1.2350768 196.48846 1.0248139 197.20996 0.88476563 198.07227 C -1.8374613 214.8336 3.6740782 235.64731 14.736328 250.38086 C 17.380119 253.90207 25.312886 261.97086 28.626953 264.50977 C 31.937849 267.04644 37.375131 270.33183 40.933594 271.94531 C 43.267556 273.00358 44.904297 274.1285 44.904297 274.67383 C 44.904297 275.18416 44.317873 277.74164 43.601563 280.35742 C 42.885249 282.9732 42.080628 285.94404 41.8125 286.95898 C 41.544372 287.97394 40.3215 292.54203 39.095703 297.10938 C 37.869906 301.6767 35.911602 309.01197 34.744141 313.41016 C 31.891713 324.15609 29.207225 334.14364 27.964844 338.63086 C 27.402813 340.66079 26.41836 344.32841 25.775391 346.78125 L 23.435547 355.69922 C 22.792577 358.15206 21.805601 361.81968 21.242188 363.84961 C 18.417975 374.02497 17.224469 379.31204 17.230469 381.61328 C 17.237335 384.22711 18.102365 387.16077 19.382813 389.94727 C 19.377063 390.00734 19.222656 390.56995 19.222656 390.60938 C 19.222656 391.57859 19.749795 392.85015 20.394531 393.43359 C 20.414234 393.45142 21.496433 393.75213 21.587891 393.78906 C 22.902233 395.70819 24.353479 397.46757 25.996094 398.66797 C 29.075665 400.91848 30.273789 401.44269 35.986328 403.04492 C 40.716021 404.37149 40.441521 404.29805 52.287109 407.45313 C 56.854449 408.66962 63.219541 410.37556 66.433594 411.24609 C 69.647648 412.11661 75.877212 413.79018 80.275391 414.96289 C 84.673566 416.13559 91.178094 417.88206 94.730469 418.8457 C 98.282842 419.80935 104.37299 421.44199 108.26367 422.47266 C 112.15437 423.50332 117.55126 424.95175 120.25781 425.69141 C 122.96439 426.43105 127.22826 427.5466 129.73242 428.16992 C 132.23658 428.79324 134.48653 429.52289 134.73242 429.79297 C 134.97804 430.06305 134.97575 432.91485 134.72656 436.12891 C 133.57122 451.03887 138.42767 467.86272 147.68945 481.0332 C 154.27722 490.40113 164.35768 499.00601 174.69727 504.08984 C 176.74579 505.09708 178.73131 505.97941 180.70898 506.75977 C 184.02527 508.22014 187.39283 509.36014 190.68164 510.08789 C 191.60848 510.29295 192.96919 510.38856 194.20898 510.51367 C 195.94787 510.82883 197.69638 511.13297 199.60938 511.37305 C 208.52924 512.49248 221.19406 510.92729 230.98242 507.49609 C 235.24689 506.00126 245.08406 500.73644 249.05664 497.82227 C 258.46894 490.91758 267.24238 480.3683 271.60742 470.70703 C 273.55802 466.38973 273.40768 466.43021 279.88477 468.44922 C 281.40719 468.9238 286.94354 470.43751 292.1875 471.8125 C 307.05073 475.70967 312.40353 477.13232 317.71484 478.59375 C 320.42142 479.33847 323.46745 480.16539 324.48242 480.43359 C 330.21474 481.94834 344.14631 485.66367 352.16211 487.81445 C 376.61198 494.37488 378.33948 494.74146 382.98633 494.34961 C 385.26249 494.15767 387.40806 493.59077 389.41602 492.76367 C 390.89791 493.06468 391.33972 493.06083 391.58984 492.96484 C 391.98411 492.81355 392.69413 491.82169 393.26758 490.7168 C 394.22998 490.04742 395.13741 489.29814 395.97461 488.46094 C 398.47324 485.96231 400.6611 482.65744 401.29883 480.41797 C 402.15312 477.41799 405.8339 464.01343 406.61914 461.04102 C 406.88727 460.02605 408.10768 455.45795 409.33203 450.89063 C 410.55637 446.32328 412.69621 438.29673 414.08594 433.05273 C 415.47567 427.80877 417.28951 421.02732 418.11719 417.98242 C 420.48672 409.26538 420.52093 409.13885 422.48438 401.68164 C 424.1148 395.48911 425.38967 390.76778 427.63867 382.61133 C 427.96516 381.4272 428.37234 379.7474 428.54297 378.87891 L 428.85352 377.30078 L 438.48828 377.2832 C 451.60836 377.2603 459.08005 375.61992 470.20508 370.32031 C 482.64621 364.39378 494.92969 353.10522 501.32617 341.7168 C 501.9425 340.61948 502.73874 339.19897 503.0957 338.56055 C 504.58389 335.89895 506.78113 330.35536 507.94336 326.32813 L 507.94336 326.32617 C 508.19748 325.56001 508.52954 324.83763 508.75586 324.05664 C 510.00364 319.75082 510.56157 315.54716 510.72852 311.31641 C 510.73222 311.21859 510.74077 311.12666 510.74414 311.02734 C 510.78954 309.67673 510.84445 308.31445 510.7793 306.95117 C 510.78035 306.19885 510.80298 305.648 510.79688 304.79688 C 510.73748 296.51267 510.48068 293.97339 509.18359 288.75195 C 507.06441 280.22103 501.89831 268.77288 497.82227 263.57813 C 489.0988 252.46047 482.02244 246.38187 471.95898 241.36133 C 468.82952 239.80006 466.27711 238.34782 466.28711 238.13477 C 466.29711 237.92172 466.85104 235.81162 467.51758 233.44336 C 468.18411 231.0751 469.87906 224.84556 471.2832 219.60156 C 472.68733 214.35759 474.50565 207.57615 475.32617 204.53125 C 476.14668 201.48634 477.32372 197.05771 477.94141 194.68945 C 478.55909 192.32122 479.52398 188.72329 480.08594 186.69336 C 481.08964 183.06774 482.27959 178.64557 487.19531 160.24219 C 488.55085 155.16736 490.53655 147.83208 491.60938 143.94141 C 494.3919 133.85032 494.62429 127.31917 492.02344 121.89258 C 492.15622 119.74121 491.91919 119.39901 489.90625 118.46094 C 489.89742 118.45682 489.83732 118.44171 489.82813 118.4375 C 489.38625 117.85978 488.95933 117.27958 488.44141 116.71289 C 484.70788 112.62782 481.54263 111.05402 471.85352 108.46094 C 467.59838 107.32214 460.93365 105.54142 457.04297 104.50391 C 446.43291 101.67459 446.5505 101.70551 442.58789 100.58008 C 440.55796 100.00356 437.92827 99.30427 436.74414 99.025391 C 434.17224 98.419659 426.79455 96.478875 421.67188 95.060547 C 417.19294 93.820464 407.56144 91.235452 397.89453 88.679688 C 393.95115 87.637117 388.27539 86.112515 385.2832 85.291016 C 382.29103 84.469508 379.11644 83.631588 378.22656 83.427734 L 376.60742 83.056641 L 376.93164 76.222656 C 378.08498 51.892783 366.51372 28.465201 346.19531 13.990234 C 341.31308 10.512096 335.72555 7.6794373 329.86133 5.5136719 C 326.79482 4.2827043 323.6584 3.2440181 320.43359 2.5957031 C 319.79809 2.4679427 319.41223 2.4639265 318.8418 2.359375 C 314.03768 1.3666222 309.20471 0.80935953 304.5332 0.83789063 z M 336.00586 97.972656 L 335.61328 111.26758 C 334.76084 140.14854 333.11882 164.41472 330.2793 190.07617 C 327.84222 212.10065 327.59828 213.91237 324.16016 235.5957 C 322.41184 246.62186 319.61413 261.05437 316.16992 276.80859 C 315.65034 279.18522 311.89031 293.63248 310.40625 298.95313 C 305.93814 314.9721 298.33797 334.67959 290.84375 349.68164 C 278.50714 374.37723 266.6553 389.50393 251.58789 399.78711 C 236.94627 409.77971 222.69584 413.38801 202.99414 412.0918 C 190.17638 411.2485 179.54623 407.70062 169.5957 400.94336 C 157.34125 392.62151 147.90769 376.78998 143.41016 356.99609 C 141.22657 347.38604 140.86609 343.65878 140.87109 330.86914 C 140.87709 317.05806 141.69322 309.24426 144.27344 298.33789 C 145.1939 294.44718 146.06995 290.69985 146.2207 290.00977 C 146.37146 289.3197 147.37356 288.37028 148.44727 287.89844 C 149.52096 287.4266 153.03008 285.82124 156.24414 284.33203 C 159.4582 282.84281 163.33302 281.05754 164.85547 280.36523 C 166.37792 279.67293 171.49787 277.31097 176.23438 275.11719 C 184.75483 271.17082 188.33209 269.53409 193.82813 267.0625 C 195.38428 266.36268 199.9104 264.25635 203.88672 262.38086 C 207.86302 260.50537 211.198 258.9707 211.29883 258.9707 C 211.39965 258.9707 213.93186 257.826 216.92578 256.42773 C 229.00815 250.78482 231.40334 249.78754 231.125 250.51758 C 228.47859 257.45858 218.11779 291.01163 217.21289 295.57031 C 215.62403 303.57473 215.10289 309.41211 215.97852 309.41211 C 219.64565 309.41211 227.27665 297.26941 231.05469 285.42188 C 232.73881 280.14066 236.05549 267.06026 236.79492 262.78125 C 239.49147 247.17668 241.1433 236.73714 241.73047 231.59766 C 242.11699 228.21443 242.69065 223.50887 243.00586 221.14063 C 244.90537 206.86926 245.62389 191.78539 245.68359 164.85547 C 245.71769 149.46182 245.52436 133.52707 245.25391 129.44531 L 244.76172 122.02344 L 252.32813 120.07813 C 256.48927 119.0075 264.59815 116.88108 270.34961 115.35352 C 276.10107 113.82595 286.06604 111.18957 292.49414 109.49414 C 298.92225 107.79871 308.88915 105.15505 314.64063 103.62109 C 320.39209 102.08715 327.55265 100.18907 330.55273 99.402344 L 336.00586 97.972656 z "
       transform="scale(0.26458333)" /></g></svg>
