<?xml version="1.0" encoding="UTF-8" standalone="no"?>
<svg
   sodipodi:docname="pluginIcon.svg"
   inkscape:version="1.2-dev (9ee32be, 2021-06-19)"
   id="svg8"
   version="1.1"
   viewBox="0 0 10.583333 10.583334"
   height="40"
   width="40"
   inkscape:export-filename="/home/chris/icon.png"
   inkscape:export-xdpi="96"
   inkscape:export-ydpi="96"
   xmlns:inkscape="http://www.inkscape.org/namespaces/inkscape"
   xmlns:sodipodi="http://sodipodi.sourceforge.net/DTD/sodipodi-0.dtd"
   xmlns="http://www.w3.org/2000/svg"
   xmlns:svg="http://www.w3.org/2000/svg"
   xmlns:rdf="http://www.w3.org/1999/02/22-rdf-syntax-ns#"
   xmlns:cc="http://creativecommons.org/ns#"
   xmlns:dc="http://purl.org/dc/elements/1.1/">
  <defs
     id="defs2">
    <clipPath
       clipPathUnits="userSpaceOnUse"
       id="clipPath843">
      <rect
         style="fill:#88c0d0;fill-opacity:1;stroke:none;stroke-width:0.778653"
         id="rect847"
         width="102.85884"
         height="375.90518"
         x="44.359974"
         y="-187.95259"
         ry="0"
         transform="rotate(45)" />
    </clipPath>
  </defs>
  <sodipodi:namedview
     units="px"
     inkscape:window-maximized="1"
     inkscape:window-y="23"
     inkscape:window-x="0"
     inkscape:window-height="1395"
     inkscape:window-width="2560"
     showgrid="false"
     inkscape:current-layer="layer1"
     inkscape:document-units="px"
     inkscape:cy="21.318153"
     inkscape:cx="22.586862"
     inkscape:zoom="26.010696"
     inkscape:pageshadow="2"
     inkscape:pageopacity="0.0"
     borderopacity="1.0"
     bordercolor="#666666"
     pagecolor="#ffffff"
     id="base"
     inkscape:document-rotation="0"
     inkscape:pagecheckerboard="0" />
  <metadata
     id="metadata5">
    <rdf:RDF>
      <cc:Work
         rdf:about="">
        <dc:format>image/svg+xml</dc:format>
        <dc:type
           rdf:resource="http://purl.org/dc/dcmitype/StillImage" />
      </cc:Work>
    </rdf:RDF>
  </metadata>
  <g
     id="layer1"
     inkscape:groupmode="layer"
     inkscape:label="Layer 1">
    <rect
       style="fill:#2a2e39;fill-opacity:1;stroke:none;stroke-width:0.0186035"
       id="rect845"
       width="9.5250006"
       height="9.5250006"
       x="0.5291667"
       y="0.52916646"
       ry="0.52914798" />
    <path
       style="fill:#3b4253;fill-opacity:1;stroke-width:3.69079;stroke-linecap:round;stroke-linejoin:round"
       d="M 3.7292351,37.963506 C 3.0908766,37.879539 2.5234658,37.475535 2.2340739,36.898929 2.0036928,36.4399 2.0184005,37.147072 2.0184005,26.528967 v -9.728419 l 2.3747969,-2.374565 2.3747969,-2.374565 8.6495137,0.01156 8.649515,0.01156 0.33089,0.08234 c 1.213284,0.301902 1.985935,0.927301 2.554972,2.068048 0.301961,0.60534 0.405737,1.036404 0.43015,1.786743 0.02228,0.684715 -0.02195,1.063793 -0.190689,1.634564 -0.453859,1.535183 -1.507521,2.488213 -3.109178,2.812234 -0.294357,0.05955 -0.919854,0.06776 -6.89793,0.0905 -6.485956,0.02468 -6.579902,0.02611 -6.997589,0.106499 -1.2038316,0.231691 -2.012031,0.668351 -2.5365534,1.370464 -0.4778791,0.639679 -0.7527307,1.464115 -0.8644647,2.593022 -0.025184,0.254448 -0.039406,2.741626 -0.039406,6.891395 v 6.493254 l -1.3936575,-0.0049 c -0.7665116,-0.0027 -1.4974609,-0.01853 -1.6243318,-0.03522 z"
       id="path1959"
       transform="scale(0.26458334)" />
    <path
       style="fill:#3b4253;fill-opacity:1;stroke-width:3.69079;stroke-linecap:round;stroke-linejoin:round"
       d="m 12.292536,32.150236 c 0.01002,-5.808857 0.01069,-5.854374 0.08835,-5.986561 0.04304,-0.07326 0.138192,-0.168413 0.211452,-0.211452 0.131839,-0.07745 0.19014,-0.07848 5.707829,-0.100159 6.069617,-0.02385 6.037584,-0.02273 7.170128,-0.25052 1.909918,-0.384139 3.669128,-1.322402 4.941753,-2.63565 1.051774,-1.085347 1.64647,-2.17067 2.145767,-3.916038 0.503491,-1.760025 0.560398,-3.784424 0.156133,-5.554255 C 32.388556,12.07108 31.787195,10.77778 31.024076,9.861328 30.696277,9.4676653 29.93524,8.7338137 29.579942,8.46878 28.516385,7.6754245 27.001129,7.0227199 25.585629,6.7482082 24.46429,6.5307438 24.831132,6.5418989 18.320879,6.5273006 l -6.015264,-0.013488 2.24746,-2.2477059 2.24746,-2.2477059 h 9.728425 c 10.663937,0 9.909219,-0.016433 10.388811,0.226206 0.444571,0.2249214 0.811231,0.6560742 0.979744,1.1520757 l 0.08686,0.2556615 0.01012,9.765213 0.01012,9.765214 -7.410918,7.410384 -7.410918,7.410385 -5.450165,2.8e-5 -5.450166,2.9e-5 z"
       id="path1998"
       transform="scale(0.26458334)" />
  </g>
</svg>
