<?xml version="1.0" encoding="UTF-8" standalone="no"?>
<svg
   xmlns:dc="http://purl.org/dc/elements/1.1/"
   xmlns:cc="http://creativecommons.org/ns#"
   xmlns:rdf="http://www.w3.org/1999/02/22-rdf-syntax-ns#"
   xmlns:svg="http://www.w3.org/2000/svg"
   xmlns="http://www.w3.org/2000/svg"
   xmlns:sodipodi="http://sodipodi.sourceforge.net/DTD/sodipodi-0.dtd"
   xmlns:inkscape="http://www.inkscape.org/namespaces/inkscape"
   sodipodi:docname="splash.svg"
   inkscape:version="1.1-dev (ddb55ca, 2020-02-02)"
   id="svg8"
   version="1.1"
   viewBox="0 0 135.46666 135.46667"
   height="512"
   width="512"
   inkscape:export-filename="/home/chris/icon.png"
   inkscape:export-xdpi="96"
   inkscape:export-ydpi="96">
  <defs
     id="defs2">
    <clipPath
       clipPathUnits="userSpaceOnUse"
       id="clipPath843">
      <rect
         style="fill:#88c0d0;fill-opacity:1;stroke:none;stroke-width:0.778653"
         id="rect847"
         width="102.85884"
         height="375.90518"
         x="44.359974"
         y="-187.95259"
         ry="0"
         transform="rotate(45)" />
    </clipPath>
  </defs>
  <sodipodi:namedview
     units="px"
     inkscape:window-maximized="0"
     inkscape:window-y="23"
     inkscape:window-x="0"
     inkscape:window-height="1005"
     inkscape:window-width="1680"
     showgrid="false"
     inkscape:current-layer="layer1"
     inkscape:document-units="px"
     inkscape:cy="241.58537"
     inkscape:cx="214.04165"
     inkscape:zoom="2.2325626"
     inkscape:pageshadow="2"
     inkscape:pageopacity="0.0"
     borderopacity="1.0"
     bordercolor="#666666"
     pagecolor="#ffffff"
     id="base"
     inkscape:document-rotation="0" />
  <metadata
     id="metadata5">
    <rdf:RDF>
      <cc:Work
         rdf:about="">
        <dc:format>image/svg+xml</dc:format>
        <dc:type
           rdf:resource="http://purl.org/dc/dcmitype/StillImage" />
        <dc:title />
      </cc:Work>
    </rdf:RDF>
  </metadata>
  <g
     id="layer1"
     inkscape:groupmode="layer"
     inkscape:label="Layer 1">
    <path
       id="path1479"
       style="fill:#272c36;stroke-width:1;stroke:#4c566a;stroke-opacity:1;stroke-miterlimit:4;stroke-dasharray:none;stroke-linejoin:round;stroke-linecap:round;fill-opacity:1"
       d="M 214.54492 22.847656 L 185.33398 52.064453 L 156.12109 81.28125 L 229.58984 81.28125 C 275.66566 81.28125 304.9558 81.430439 308.14844 81.681641 C 324.90906 83.000384 338.41469 85.988432 352.11328 91.408203 C 368.09796 97.732447 380.47437 105.66185 391.12695 116.40234 C 404.12477 129.50741 411.10643 140.86962 416.88086 158.3125 C 422.0129 173.8149 424.11034 186.95337 424.08594 203.46289 C 424.06225 219.52773 422.14376 232.15394 417.24023 248.5332 C 407.27067 281.83452 386.2549 305.34448 353.11133 320.27539 C 341.58668 325.46715 328.93778 328.7687 313.375 330.64648 C 308.26258 331.26333 300.64683 331.35122 235.07422 331.54688 C 165.18643 331.75542 162.38211 331.79195 161.05273 332.5 C 159.1272 333.52557 157.55232 335.07317 156.77734 336.69922 C 156.17076 337.97196 156.11112 344.03394 156.01562 413.58008 L 155.91211 489.08008 L 226.67969 489.08008 L 297.44727 489.08008 L 393.2832 393.24609 L 489.11719 297.41016 L 489.01367 170.69336 L 488.91211 43.974609 L 487.83008 40.787109 C 485.17697 32.962871 479.20647 26.967329 471.33398 24.220703 L 467.98828 23.052734 L 341.26758 22.951172 L 214.54492 22.847656 z M 84.666016 152.72461 L 53.769531 183.625 L 22.875 214.52734 L 22.978516 341.24414 L 23.080078 467.96094 L 24.003906 470.72461 C 27.046156 479.83142 34.345897 486.55819 43.214844 488.43164 C 45.422904 488.89805 49.844083 489.02313 65.214844 489.04883 L 84.451172 489.08008 L 84.572266 401.93555 C 84.705335 307.05067 84.572396 312.83629 86.841797 303.18945 C 92.514462 279.07593 106.31764 267.52574 133.92383 263.79102 C 138.23253 263.20811 147.71409 263.11164 222.44141 262.88867 L 306.13281 262.63867 L 310.08008 261.74414 C 326.48344 258.02974 338.34605 249.27366 345.21875 235.80469 C 347.17921 231.96262 349.74349 224.48574 350.69141 219.8457 C 353.90187 204.1306 351.11834 187.81454 343.14844 175.63086 C 335.95435 164.63316 327.33721 158.23033 315.51758 155.0957 C 307.03495 152.84647 315.121 152.99549 195.00391 152.85352 L 84.666016 152.72461 z "
       transform="scale(0.26458333)" />
  </g>
</svg>
