<?xml version="1.0" encoding="UTF-8" standalone="no"?>
<svg
   version="1.1"
   width="512"
   height="512"
   id="svg2"
   sodipodi:docname="clojure.svg"
   inkscape:version="1.2-dev (9ee32be, 2021-06-19)"
   xmlns:inkscape="http://www.inkscape.org/namespaces/inkscape"
   xmlns:sodipodi="http://sodipodi.sourceforge.net/DTD/sodipodi-0.dtd"
   xmlns="http://www.w3.org/2000/svg"
   xmlns:svg="http://www.w3.org/2000/svg"
   xmlns:rdf="http://www.w3.org/1999/02/22-rdf-syntax-ns#"
   xmlns:cc="http://creativecommons.org/ns#"
   xmlns:dc="http://purl.org/dc/elements/1.1/">
  <sodipodi:namedview
     id="namedview127"
     pagecolor="#ffffff"
     bordercolor="#666666"
     borderopacity="1.0"
     inkscape:pageshadow="2"
     inkscape:pageopacity="0.0"
     inkscape:pagecheckerboard="0"
     showgrid="false"
     width="512px"
     inkscape:zoom="2.2910156"
     inkscape:cx="256"
     inkscape:cy="256"
     inkscape:window-width="2270"
     inkscape:window-height="1357"
     inkscape:window-x="1154"
     inkscape:window-y="25"
     inkscape:window-maximized="0"
     inkscape:current-layer="g245" />
  <metadata
     id="metadata4">
    <rdf:RDF>
      <cc:Work
         rdf:about="">
        <dc:format>image/svg+xml</dc:format>
        <dc:type
           rdf:resource="http://purl.org/dc/dcmitype/StillImage" />
      </cc:Work>
    </rdf:RDF>
  </metadata>
  <defs
     id="defs6" />
  <g
     id="g245"
     transform="scale(1.375)">
    <path
       id="path8"
       fill="#000000"
       style="fill-opacity:1;stroke-width:1.45453"
       d="M 186.18182,0 C 83.525823,0 0,83.524904 0,186.18182 c 0,102.66561 83.525823,186.18182 186.18182,186.18182 102.65893,0 186.18182,-83.51621 186.18182,-186.18182 C 372.36364,83.524904 288.84075,0 186.18182,0 Z m 0.16587,18.247934 c 92.92363,0 168.26446,75.347023 168.26446,168.264456 0,7.27551 -0.52707,14.42197 -1.42142,21.45455 -4.57464,18.20765 -12.79879,30.35098 -22.64463,38.64462 -15.09963,12.6995 -35.25013,16.80215 -53.8843,16.7934 -5.24654,0.0271 -10.38915,-0.3199 -15.20661,-0.85948 19.62618,-19.37997 31.80165,-46.3009 31.80165,-76.06613 -0.009,-59.03738 -47.87054,-106.868754 -106.90908,-106.876027 -15.30765,0 -29.84464,3.227089 -43.00827,9.024793 -1.65737,-1.135999 -3.34281,-2.2128 -5.12461,-3.239686 C 130.83742,81.240145 115.45864,75.163992 95.900826,75.107438 81.740827,74.97944 65.510744,78.577112 49.619834,88.528926 80.153652,45.991567 129.99216,18.247934 186.34711,18.247934 Z m 0,79.272728 c 49.13309,0.09749 88.87645,39.838088 88.95867,88.958678 h 0.0339 c -0.0575,29.46415 -14.38319,55.55112 -36.42975,71.73553 -3.27709,-0.92956 -5.63911,-1.76595 -6.67769,-2.28098 -3.48073,-1.50537 -8.60892,-6.64635 -13.25619,-13.78512 -7.07782,-10.6529 -13.56006,-25.28316 -18.1157,-37.09093 -4.58769,-11.82376 -7.25721,-20.73401 -7.27273,-20.76032 v -0.0339 c -8.40428,-32.18622 -17.11092,-61.59088 -35.17493,-82.18103 8.784,-2.910483 18.16808,-4.543204 27.93389,-4.561978 z m -88.991743,6.347108 c 6.361603,-0.0116 12.572513,0.8381 18.544883,2.28099 -22.330186,19.58798 -36.429756,48.29194 -36.429756,80.33058 0.0073,59.04759 47.844746,106.90908 106.876036,106.90908 17.06037,0 33.16415,-4.00357 47.47107,-11.10743 8.50619,3.00067 18.23471,4.77151 30.01654,6.24794 4.41743,0.53942 9.19878,0.82647 14.28099,0.82647 13.55925,-0.0423 29.38579,-2.01245 45.85123,-6.1157 -30.4422,43.2428 -80.71511,71.50413 -137.61983,71.50413 -92.916389,0 -168.231408,-75.30958 -168.231408,-168.2314 0,-6.11481 -0.296993,-11.29256 0.99174,-18.1157 C 32.890721,121.522 65.992467,104.16306 97.355377,103.8678 Z m 37.884303,9.91735 c 5.00509,2.89158 9.52237,6.26335 13.25619,10.18182 7.32364,7.50094 15.53733,24.08411 21.22315,38.34711 1.55495,3.85009 2.94634,7.49469 4.16529,10.84298 -20.52569,41.74462 -34.20964,62.57803 -39.67,85.3223 -22.26037,-16.15967 -36.769662,-42.37002 -36.826451,-71.99999 0.05673,-30.07941 15.016331,-56.60144 37.851241,-72.69422 z m 44.13222,75.73555 c 10.55419,37.57017 17.23372,59.92727 29.1901,75.17355 1.80073,2.27631 3.77852,4.2866 5.85123,6.18181 -8.81891,2.93223 -18.2581,4.54336 -28.06611,4.56199 -10.77382,-0.0186 -21.09264,-1.94478 -30.64463,-5.45455 -0.19604,-2.47268 -0.29752,-4.8968 -0.29752,-7.2066 -0.0116,-5.83988 0.57191,-11.08874 1.55372,-15.33885 2.73308,-11.93286 10.23537,-30.57698 16.99173,-45.8843 1.91126,-4.33447 3.74876,-8.40841 5.42148,-12.03305 z" />
  </g>
</svg>
